PathFileType	4	(X/Y/Z)	/Users/itak/Documents/Research/Walk-IL/dataset/trc/00133_00007.trc
DataRate	CameraRate	NumFrames	NumMarkers	Units	OrigDataRate	OrigDataStartFrame	OrigNumFrames
100.000000	100.000000	4	53	mm	100.000000	274	732
Frame#	Time	RPSI			LPSI			L3			STRN			T10			C7			CLAV			RBAK			LBAK			LSHO			LUPA			LAEL			LAOL			LWTS			LWPS			LFRA			LIFD			LHPS			LHTS			RSHO			RUPA			RAEL			RAOL			RWTS			RWPS			RFRA			RIFD			RHTS			RHPS			RBHD			LFHD			RFHD			LBHD			LHIP			RHIP			RASI			LASI			LKNE			LTHI			LANK			LTIP			LTOE			LMT1			LMT5			LHEE			RKNE			RTHI			RANK			RTIP			RTOE			RMT1			RMT5			RHEE			
		X1	Y1	Z1	X2	Y2	Z2	X3	Y3	Z3	X4	Y4	Z4	X5	Y5	Z5	X6	Y6	Z6	X7	Y7	Z7	X8	Y8	Z8	X9	Y9	Z9	X10	Y10	Z10	X11	Y11	Z11	X12	Y12	Z12	X13	Y13	Z13	X14	Y14	Z14	X15	Y15	Z15	X16	Y16	Z16	X17	Y17	Z17	X18	Y18	Z18	X19	Y19	Z19	X20	Y20	Z20	X21	Y21	Z21	X22	Y22	Z22	X23	Y23	Z23	X24	Y24	Z24	X25	Y25	Z25	X26	Y26	Z26	X27	Y27	Z27	X28	Y28	Z28	X29	Y29	Z29	X30	Y30	Z30	X31	Y31	Z31	X32	Y32	Z32	X33	Y33	Z33	X34	Y34	Z34	X35	Y35	Z35	X36	Y36	Z36	X37	Y37	Z37	X38	Y38	Z38	X39	Y39	Z39	X40	Y40	Z40	X41	Y41	Z41	X42	Y42	Z42	X43	Y43	Z43	X44	Y44	Z44	X45	Y45	Z45	X46	Y46	Z46	X47	Y47	Z47	X48	Y48	Z48	X49	Y49	Z49	X50	Y50	Z50	X51	Y51	Z51	X52	Y52	Z52	X53	Y53	Z53	

275	2.74	-559.8441162109375	1105.136474609375	92.2489013671875	-677.7725830078125	1113.270629882812	24.79598617553711	-623.261474609375	1145.790771484375	63.58415985107422	-499.7278747558594	1345.503662109375	-127.6755752563477	-632.5722045898438	1299.382568359375	94.71970367431641	-611.1121215820312	1592.589721679688	59.86464691162109	-515.4524536132812	1480.555053710938	-96.16429901123047	-572.1343383789062	1403.465942382812	147.79736328125	-702.6238403320312	1579.170654296875	11.54063034057617	-718.1918334960938	1567.570434570312	-98.57221221923828	-796.3305053710938	1438.473022460938	-113.3599395751953	-825.89990234375	1221.250122070312	-125.6284561157227	-800.4651489257812	1209.563598632812	-41.34462356567383	-769.3526000976562	954.6007080078125	-189.5625915527344	-826.7083129882812	936.7374877929688	-124.1624145507812	-832.9848022460938	1104.838256835938	-137.6357116699219	-753.506103515625	761.8076782226562	-175.7978210449219	-820.0903930664062	859.0224609375	-145.9750671386719	-779.498779296875	863.5167846679688	-201.968505859375	-429.0796813964844	1561.31884765625	104.3779602050781	-387.78662109375	1485.328979492188	151.6357116699219	-388.1983337402344	1189.718017578125	166.1174163818359	-474.8434448242188	1192.283325195312	121.8328857421875	-318.0740051269531	960.1705932617188	16.81866645812988	-335.0308227539062	934.9389038085938	93.92545318603516	-363.1756896972656	1116.5673828125	148.7837677001953	-318.4923095703125	771.618408203125	-35.07111358642578	-295.3339538574219	855.4016723632812	-15.81320571899414	-309.93115234375	839.2528076171875	54.82733154296875	-523.79736328125	1752.867065429688	77.60076904296875	-483.2296447753906	1825.916625976562	-127.8672866821289	-396.3450012207031	1807.761108398438	-32.59398651123047	-619.143310546875	1776.438354492188	-14.32411003112793	-723.252685546875	1032.4072265625	-116.3368530273438	-399.53759765625	1003.607360839844	37.13848876953125	-401.1725463867188	1080.216918945312	-55.59626007080078	-632.7017822265625	1096.541259765625	-185.1444244384766	-664.92626953125	541.95703125	-272.001953125	-705.3881225585938	687.56884765625	-222.9306182861328	-902.2728271484375	168.3804321289062	29.67436981201172	-813.4873657226562	374.7658081054688	-111.3982086181641	-794.8082275390625	41.75010681152344	-124.3839416503906	-780.2466430664062	78.94126129150391	-51.99271011352539	-893.8748168945312	93.48729705810547	-67.76876068115234	-865.089599609375	204.121337890625	104.9385223388672	-503.8213806152344	517.55615234375	-34.59663391113281	-423.5475158691406	789.5732421875	-5.426594734191895	-655.6636962890625	28.16372680664062	-30.3736457824707	-529.4012451171875	384.2577819824219	-25.65098571777344	-546.4021606445312	41.11692047119141	-242.021728515625	-618.4479370117188	34.93148422241211	-222.8794097900391	-553.3637084960938	43.07076644897461	-120.0962371826172	-727.5450439453125	29.83751106262207	-17.98272705078125	
276	2.75	-557.900146484375	1105.121826171875	85.53408050537109	-674.4182739257812	1113.660522460938	15.59365272521973	-620.728759765625	1146.023315429688	55.6368408203125	-493.43896484375	1345.622314453125	-133.5210876464844	-629.9127197265625	1299.638671875	86.64615631103516	-607.9144897460938	1592.92822265625	51.8380012512207	-510.0536804199219	1480.725341796875	-102.6013793945312	-569.8693237304688	1404.014404296875	140.8242340087891	-698.66650390625	1579.232421875	2.443236112594604	-712.874755859375	1567.354736328125	-107.8411026000977	-790.9884643554688	1438.265747070312	-123.012565612793	-820.8159790039062	1221.082275390625	-134.3582611083984	-796.4031372070312	1209.712646484375	-49.70830154418945	-762.99267578125	954.4826049804688	-197.1386871337891	-821.0848999023438	936.4799194335938	-132.4750061035156	-827.6817626953125	1104.583374023438	-146.1679229736328	-746.47119140625	761.7885131835938	-183.1006774902344	-813.8545532226562	858.7427978515625	-154.1699371337891	-772.64453125	863.3827514648438	-209.6301422119141	-426.4856567382812	1561.993530273438	98.99761199951172	-385.6605834960938	1486.080200195312	146.8472290039062	-385.1948547363281	1190.196655273438	160.7506408691406	-471.4886474609375	1192.366943359375	115.376335144043	-311.8274841308594	963.1004638671875	9.230229377746582	-329.1927795410156	936.6542358398438	85.81224822998047	-359.51904296875	1117.279052734375	142.8627471923828	-310.0157775878906	775.3590698242188	-45.333984375	-287.7947998046875	859.0442504882812	-24.66391563415527	-302.9250793457031	841.7218627929688	45.595458984375	-520.9218139648438	1753.297119140625	70.46802520751953	-478.3065185546875	1826.188720703125	-134.6514892578125	-392.3142395019531	1808.275756835938	-38.50432586669922	-615.235595703125	1776.570922851562	-22.43332481384277	-716.6380004882812	1033.071044921875	-126.6000900268555	-396.8219604492188	1003.39453125	33.93326187133789	-396.0787353515625	1080.092407226562	-58.87739944458008	-625.015869140625	1097.269409179688	-193.4099578857422	-650.6076049804688	544.8143310546875	-285.4889221191406	-694.04638671875	689.5132446289062	-236.3495178222656	-892.7398071289062	160.0521087646484	-3.684161424636841	-802.32958984375	371.7714538574219	-134.1171722412109	-779.9669799804688	42.14111328125	-161.1091461181641	-767.8218383789062	75.62673187255859	-86.50665283203125	-880.9822387695312	90.73200225830078	-104.8526840209961	-858.0936889648438	191.822509765625	74.64812469482422	-502.3757019042969	517.340087890625	-37.0715446472168	-421.2408752441406	789.1663818359375	-8.473607063293457	-655.7301635742188	28.38571357727051	-30.53021049499512	-528.6934814453125	384.1256408691406	-27.70382881164551	-546.3704833984375	40.79978561401367	-242.3022308349609	-618.4232177734375	34.75979995727539	-223.0434112548828	-553.4151000976562	43.08144378662109	-120.2085952758789	-727.4982299804688	30.04144859313965	-18.08667755126953	
277	2.76	-555.9593505859375	1105.108642578125	78.74997711181641	-670.998046875	1114.019165039062	6.390371322631836	-618.18408203125	1146.248168945312	47.66105270385742	-487.1229248046875	1345.685668945312	-139.3152465820312	-627.1655883789062	1299.8642578125	78.55464935302734	-604.6495361328125	1593.219970703125	43.84621429443359	-504.5966491699219	1480.848510742188	-108.9819717407227	-567.579345703125	1404.51806640625	133.8415985107422	-694.6209106445312	1579.250610351562	-6.61814546585083	-707.43603515625	1567.072387695312	-117.0677337646484	-785.5142211914062	1438.006713867188	-132.6436157226562	-815.6171264648438	1220.871704101562	-143.20556640625	-792.2476806640625	1209.794921875	-58.18336486816406	-756.5343017578125	954.328125	-204.8414459228516	-815.396240234375	936.195068359375	-140.9595336914062	-822.2679443359375	1104.302734375	-154.8407897949219	-739.4984130859375	761.7418823242188	-190.6228790283203	-807.6072387695312	858.4526977539062	-162.5699462890625	-765.7470092773438	863.245849609375	-217.4612274169922	-423.8335571289062	1562.607666015625	93.63682556152344	-383.5081176757812	1486.770385742188	142.0816802978516	-382.2680358886719	1190.631958007812	155.5352325439453	-468.120361328125	1192.504150390625	108.983039855957	-305.6779479980469	966.0274658203125	1.858208417892456	-323.393798828125	938.3779296875	77.91086578369141	-355.940673828125	1117.955810546875	137.1090698242188	-301.6063537597656	779.1404418945312	-55.30198287963867	-280.3712463378906	862.7025756835938	-33.27486419677734	-295.971923828125	844.219482421875	36.60708999633789	-517.9933471679688	1753.6630859375	63.33984375	-473.3490905761719	1826.4296875	-141.3965148925781	-388.26416015625	1808.777221679688	-44.37769317626953	-611.2666625976562	1776.615844726562	-30.52010345458984	-710.1189575195312	1033.794189453125	-136.8574676513672	-394.235595703125	1003.107788085938	30.73919486999512	-391.0709228515625	1079.916137695312	-62.0988655090332	-617.2019653320312	1097.886352539062	-201.5233917236328	-636.2774658203125	547.62109375	-298.1913757324219	-682.6373291015625	691.4092407226562	-249.2499389648438	-881.875732421875	151.4404602050781	-37.26283645629883	-790.6396484375	368.5816040039062	-156.572265625	-763.3009033203125	42.71350860595703	-197.2966918945312	-753.7686767578125	72.33745574951172	-120.6998062133789	-866.4170532226562	87.80095672607422	-141.6455535888672	-849.8662109375	179.2511596679688	43.79941177368164	-500.9005737304688	517.125732421875	-39.63642501831055	-418.9789733886719	788.7022094726562	-11.43724060058594	-655.7990112304688	28.62109756469727	-30.6832218170166	-527.9556274414062	383.96533203125	-29.83293533325195	-546.3081665039062	40.52917098999023	-242.5558929443359	-618.3341064453125	34.63155364990234	-223.1929473876953	-553.4700317382812	43.08510208129883	-120.3231430053711	-727.5087890625	30.21327018737793	-18.22612380981445	
278	2.77	-554.0285034179688	1105.088500976562	71.88087463378906	-667.5232543945312	1114.355590820312	-2.817469835281372	-615.605224609375	1146.458862304688	39.66067123413086	-480.8054809570312	1345.702392578125	-145.0645446777344	-624.2833251953125	1300.050170898438	70.43455505371094	-601.2977294921875	1593.45947265625	35.91604614257812	-499.0967102050781	1480.93017578125	-115.3053665161133	-565.2489624023438	1404.971557617188	126.8378219604492	-690.4879150390625	1579.227172851562	-15.62431240081787	-701.8821411132812	1566.741333007812	-126.2377395629883	-779.9192504882812	1437.709228515625	-142.2361297607422	-810.2814331054688	1220.627197265625	-152.1677398681641	-787.9547729492188	1209.817504882812	-66.77773284912109	-749.9915161132812	954.1398315429688	-212.6738586425781	-809.637939453125	935.89404296875	-149.5933837890625	-816.7293090820312	1104.010620117188	-163.6515808105469	-732.6174926757812	761.6596069335938	-198.3437957763672	-801.3592529296875	858.1592407226562	-171.14404296875	-758.8322143554688	863.1011962890625	-225.4460296630859	-421.110107421875	1563.15576171875	88.27335357666016	-381.3058776855469	1487.3955078125	137.3131866455078	-379.4055480957031	1191.024047851562	150.4505462646484	-464.7610778808594	1192.686157226562	102.683967590332	-299.6241455078125	968.9232788085938	-5.283393383026123	-317.6539001464844	940.091552734375	70.23715209960938	-352.4312744140625	1118.594604492188	131.5111541748047	-293.2624816894531	782.9271850585938	-64.94440460205078	-273.0608520507812	866.3453979492188	-41.61715698242188	-289.0847778320312	846.725341796875	27.88839340209961	-514.9862670898438	1753.966796875	56.22049713134766	-468.356689453125	1826.628295898438	-148.1058807373047	-384.1884460449219	1809.255493164062	-50.22390365600586	-607.234375	1776.578735351562	-38.57733535766602	-703.6943969726562	1034.553833007812	-147.1812133789062	-391.7173767089844	1002.772766113281	27.49723243713379	-386.1445922851562	1079.696411132812	-65.28238677978516	-609.240234375	1098.359985351562	-209.4613037109375	-622.0228271484375	550.3472290039062	-310.1405944824219	-671.1986083984375	693.2240600585938	-261.6268005371094	-869.5721435546875	142.6377258300781	-70.89962768554688	-778.4207153320312	365.2185668945312	-178.7373962402344	-744.8602905273438	43.51363372802734	-232.7645111083984	-738.0521850585938	69.13606262207031	-154.3985900878906	-850.1746215820312	84.74842071533203	-177.9703979492188	-840.2603759765625	166.5598297119141	12.52675724029541	-499.3753051757812	516.9066772460938	-42.25616836547852	-416.7436828613281	788.1741943359375	-14.28823661804199	-655.866455078125	28.86258506774902	-30.8285961151123	-527.171630859375	383.7790832519531	-32.00712966918945	-546.2208862304688	40.31159973144531	-242.7771759033203	-618.1744384765625	34.55815887451172	-223.3257751464844	-553.5249633789062	43.07986068725586	-120.4368286132812	-727.5933227539062	30.35229682922363	-18.39917182922363	
